/* XPM */
static char *open[] = {
/* columns rows colors chars-per-pixel */
"16 16 116 2",
"   c #4A4A3E",
".  c #4E4E42",
"X  c #515143",
"o  c #525245",
"O  c #57584A",
"+  c #5B5C4D",
"@  c #555753",
"#  c #565853",
"$  c #575955",
"%  c #585A55",
"&  c #5F6150",
"*  c #606251",
"=  c #616252",
"-  c #616352",
";  c #646554",
":  c #646655",
">  c #676756",
",  c #676757",
"<  c #666957",
"1  c #676957",
"2  c #676A58",
"3  c #6A6B59",
"4  c #6A6C5A",
"5  c #6B6E5B",
"6  c #6C6E5B",
"7  c #6C6F5C",
"8  c #70725E",
"9  c #6F7360",
"0  c #707360",
"q  c #727461",
"w  c #737663",
"e  c #747663",
"r  c #747763",
"t  c #747764",
"y  c #757863",
"u  c #757864",
"i  c #767965",
"p  c #777965",
"a  c #777966",
"s  c #777A66",
"d  c #787B67",
"f  c #797C67",
"g  c #797C69",
"h  c #7A7C6D",
"j  c #7D7F6D",
"k  c #848771",
"l  c #818376",
"z  c #898C76",
"x  c #8C8C7A",
"c  c #90937C",
"v  c #949784",
"b  c #969884",
"n  c #9B9B88",
"m  c #9EA18D",
"M  c #9EA08F",
"N  c #A0A191",
"B  c #A1A291",
"V  c #A2A290",
"C  c #A1A392",
"Z  c #A3A593",
"A  c #A5A593",
"S  c #A4A594",
"D  c #A4A694",
"F  c #A7A797",
"G  c #A6A896",
"H  c #A7A896",
"J  c #A8AA99",
"K  c #AAAA99",
"L  c #AAAC9B",
"P  c #ACAC9A",
"I  c #ADAD9B",
"U  c #ABAD9C",
"Y  c #ADAD9C",
"T  c #AEAE9C",
"R  c #AFAF9E",
"E  c #AFAF9F",
"W  c #B0B09F",
"Q  c #ACAEA0",
"!  c #ADAFA2",
"~  c #AFB1A2",
"^  c #B1B1A1",
"/  c #B0B2A1",
"(  c #B0B1A3",
")  c #B2B3A4",
"_  c #B2B4A4",
"`  c #B3B5A6",
"'  c #B4B6A7",
"]  c #B3B5A8",
"[  c #B5B7A8",
"{  c #B7B7A9",
"}  c #B6B8A9",
"|  c #B7B8A9",
" . c #B7B9AA",
".. c #B9BAAA",
"X. c #B8BAAB",
"o. c #B9B9AD",
"O. c #B8BBB3",
"+. c #BDBEB2",
"@. c #BFBFB3",
"#. c #BABDB6",
"$. c #BFBFB4",
"%. c #BFC1B3",
"&. c #C1C1B4",
"*. c #C0C0B5",
"=. c #C1C1B6",
"-. c #C2C3B6",
";. c #C2C3B7",
":. c #C3C4B8",
">. c #C3C5B8",
",. c #C4C5B8",
"<. c #C4C5B9",
"1. c #EEEEEC",
"2. c #FBFBFA",
"3. c #FBFBFB",
"4. c #FFFFFF",
"5. c None",
/* pixels */
"5.5.5.5.5.5.5.5.5.5.5.5.5.5.5.5.",
"5.5.5.5.5.5.5.5.5.5.5.5.5.5.5.5.",
"5.s s s s s d 5.5.5.5.5.5.5.5.5.",
"y [ [ ` ` / U g 5.5.5.5.5.5.5.5.",
"w ` c c c c m n s w e e t e y 5.",
"8 J c c h % @ @ @ @ # @ $ l b 9 ",
"5 v k k $ 2.4.4.4.4.4.4.2.$ z 5 ",
"1 j s y @ 4.#.#.#.#.#.#.4.@ s 2 ",
"; 3 3 3 @ 4.1.1.1.1.1.1.4.@ 3 : ",
"& , , , @ 4.#.O.O.O.O.O.2.@ , * ",
"+ , : , % Q g d s d s s s s s 0 ",
"1 6 7 7 0 C $.<.>.;.;.$.+.+.o.3 ",
"* &.,.-.;...K H S S S S C C ] * ",
"O ,.....o...} [ [ ` ) / / Q ( O ",
"o n P P T T E / E Y K F A C x X ",
"5..                         . 5."
};
