/* XPM */
static char * savegame_xpm[] = {
"24 24 234 2",
"  	c None",
". 	c #000000",
"+ 	c #C3D7F4",
"@ 	c #A9CDE5",
"# 	c #75757A",
"$ 	c #EFC5BB",
"% 	c #F1C8BE",
"& 	c #F0C6BC",
"* 	c #EEBCB2",
"= 	c #EEBEB5",
"- 	c #EEC1B8",
"; 	c #EDBFB6",
"> 	c #E9B7AD",
", 	c #E9B8AF",
"' 	c #E9B9B1",
") 	c #E5BFBA",
"! 	c #737277",
"~ 	c #B3CDE3",
"{ 	c #A1BED6",
"] 	c #BBD6E8",
"^ 	c #8AAAC5",
"/ 	c #605F68",
"( 	c #E08D7E",
"_ 	c #E0826E",
": 	c #E0806E",
"< 	c #DC7A68",
"[ 	c #DC8171",
"} 	c #DA7868",
"| 	c #D48173",
"1 	c #D47D6E",
"2 	c #CE7265",
"3 	c #CF7264",
"4 	c #CE7567",
"5 	c #C4675B",
"6 	c #C36558",
"7 	c #626169",
"8 	c #87A3B7",
"9 	c #567187",
"0 	c #BAD5E9",
"a 	c #88A7C3",
"b 	c #686670",
"c 	c #C8817B",
"d 	c #CB7C74",
"e 	c #CB7A73",
"f 	c #CB7B73",
"g 	c #CC7C72",
"h 	c #CB7D73",
"i 	c #BF6B64",
"j 	c #CC7A70",
"k 	c #C16A62",
"l 	c #CC7C73",
"m 	c #C2655B",
"n 	c #C36459",
"o 	c #BA6C6A",
"p 	c #819EB6",
"q 	c #547086",
"r 	c #B6D3E7",
"s 	c #87ABC1",
"t 	c #737373",
"u 	c #FFFFFF",
"v 	c #83A0B8",
"w 	c #526C80",
"x 	c #B9D3E7",
"y 	c #85A4BF",
"z 	c #4F697C",
"A 	c #B9D3E6",
"B 	c #84A3BF",
"C 	c #CECECE",
"D 	c #CDCDCD",
"E 	c #BFBFBF",
"F 	c #88A4BB",
"G 	c #486276",
"H 	c #B7D2E7",
"I 	c #82A0BB",
"J 	c #636363",
"K 	c #FEFEFE",
"L 	c #9C9C9C",
"M 	c #505050",
"N 	c #282828",
"O 	c #080808",
"P 	c #1B1B1B",
"Q 	c #363636",
"R 	c #777777",
"S 	c #D2D2D2",
"T 	c #465E70",
"U 	c #B5CAE5",
"V 	c #7FA2B9",
"W 	c #DEDEDE",
"X 	c #3B3B3B",
"Y 	c #87A3BA",
"Z 	c #455C6D",
"` 	c #AECCE5",
" .	c #7DA0B6",
"..	c #CCCCCC",
"+.	c #2F2F2F",
"@.	c #141414",
"#.	c #7B7B7B",
"$.	c #AAAAAA",
"%.	c #C4C4C4",
"&.	c #BABABA",
"*.	c #A4A4A4",
"=.	c #717171",
"-.	c #242424",
";.	c #C5C5C5",
">.	c #546069",
",.	c #B0D1E4",
"'.	c #83A1B6",
").	c #735B5B",
"!.	c #EFEFEF",
"~.	c #515C64",
"{.	c #AACEE3",
"].	c #7B9BB2",
"^.	c #7A8E9A",
"/.	c #7A7A7A",
"(.	c #232323",
"_.	c #484848",
":.	c #6B6F72",
"<.	c #6F6F6F",
"[.	c #696969",
"}.	c #6F777E",
"|.	c #86A2B9",
"1.	c #3A515D",
"2.	c #A9C9E2",
"3.	c #7494AF",
"4.	c #14181C",
"5.	c #6C859A",
"6.	c #7E9CB5",
"7.	c #829FB7",
"8.	c #7998B2",
"9.	c #8CA7BD",
"0.	c #8AA5BB",
"a.	c #364A59",
"b.	c #ABC4E2",
"c.	c #7294AD",
"d.	c #6F90AC",
"e.	c #7192AE",
"f.	c #020202",
"g.	c #4F575F",
"h.	c #626F79",
"i.	c #5F6C76",
"j.	c #5C6971",
"k.	c #39424B",
"l.	c #7897B3",
"m.	c #A4B9CB",
"n.	c #364853",
"o.	c #AAC9E2",
"p.	c #7091AA",
"q.	c #6F8FA7",
"r.	c #4A5359",
"s.	c #161514",
"t.	c #C4C3C0",
"u.	c #EBEAE8",
"v.	c #EAE9E7",
"w.	c #DFDDDA",
"x.	c #CFCEC9",
"y.	c #C9C6C0",
"z.	c #4B657A",
"A.	c #54738C",
"B.	c #AAC6DD",
"C.	c #34464E",
"D.	c #AAC9E1",
"E.	c #6C8EA6",
"F.	c #6C8CA4",
"G.	c #40474D",
"H.	c #41413F",
"I.	c #44423E",
"J.	c #524F47",
"K.	c #D9D7D4",
"L.	c #C7C5BF",
"M.	c #C0BCB5",
"N.	c #B8B3AB",
"O.	c #4D697F",
"P.	c #4F6F84",
"Q.	c #B3CADC",
"R.	c #313E49",
"S.	c #A8C8E1",
"T.	c #6B8DA6",
"U.	c #728FA4",
"V.	c #848482",
"W.	c #100F0E",
"X.	c #4F4C45",
"Y.	c #CDCAC6",
"Z.	c #C2BFB9",
"`.	c #CAC6C0",
" +	c #4E697F",
".+	c #BACCDC",
"++	c #A4C4DE",
"@+	c #698BA3",
"#+	c #708AA1",
"$+	c #383E43",
"%+	c #DDDBD7",
"&+	c #2D2C2C",
"*+	c #0C0C0A",
"=+	c #36342E",
"-+	c #AFACA7",
";+	c #BAB6B0",
">+	c #B1AEA9",
",+	c #7F7E7C",
"'+	c #4E6879",
")+	c #4D6C80",
"!+	c #A3C3DB",
"~+	c #383F43",
"{+	c #778999",
"]+	c #6E899E",
"^+	c #65859C",
"/+	c #33383C",
"(+	c #D7D4D0",
"_+	c #B4B2AF",
":+	c #0E0D0C",
"<+	c #10100F",
"[+	c #2E3438",
"}+	c #486173",
"|+	c #4D6678",
"1+	c #A1C1DA",
"2+	c #373C40",
"3+	c #0C0D0F",
"4+	c #4E5E6A",
"5+	c #5B6E7C",
"6+	c #4F5B62",
"7+	c #A4A099",
"8+	c #B5B0A8",
"9+	c #716F6C",
"0+	c #3A3937",
"a+	c #1A1919",
"b+	c #0C0C0C",
"c+	c #373636",
"d+	c #61615F",
"e+	c #A5A29E",
"f+	c #3E474D",
"g+	c #4A6176",
"h+	c #4A6070",
"i+	c #9BC3D8",
"j+	c #363C41",
"k+	c #28323E",
"                                                ",
"                                                ",
"    . . . . . . . . . . . . . . . . . . .       ",
"  . + @ # $ % & * = - ; > , > , ' ) ! ~ { .     ",
"  . ] ^ / ( _ : < [ } | 1 2 3 4 5 6 7 8 9 .     ",
"  . 0 a b c d e f g h i j k l m n o b p q .     ",
"  . r s t u u u u u u u u u u u u u t v w .     ",
"  . x y t u u u u u u u u u u u u u t v z .     ",
"  . A B t C D D D D D D D D D D D E t F G .     ",
"  . H I J u u u K L M N O P Q R S u t F T .     ",
"  . U V t u u W X . . . . . . . . u t Y Z .     ",
"  . `  .t C ..+.. @.#.$.%.&.*.=.-.;.t Y >..     ",
"  . ,.'.).u L . P !.u u u u u u u u t v ~..     ",
"  . {.].^./.(.. _.t t :.<.t t t t [.}.|.1..     ",
"  . 2.3.p v 4.. 5.6.7.8.. . . . . 9.v 0.a..     ",
"  . b.c.d.e.f.. g.h.i.j.. . . . . k.l.m.n..     ",
"  . o.p.q.r.s.. t.u.u.v.w.x.y.. . z.A.B.C..     ",
"  . D.E.F.G.H.. I.J.J.K.L.M.N.. . O.P.Q.R..     ",
"  . S.T.U.G.V.. W.X.J.Y.Z.M.`.. .  +P..+R..     ",
"  . ++@+#+$+%+&+. *+=+-+;+>+,+. . '+)+!+~+.     ",
"  . {+]+^+/+(+_+:+. . . . . . <+[+}+|+1+2+.     ",
"    3+4+5+6+7+M.8+9+0+a+b+c+d+e+f+g+h+i+j+.     ",
"      . . . . . . . . . . . . . . . . k+.       ",
"                                                "};
