/* XPM */
static char * saveoutput_xpm[] = {
"24 24 253 2",
"  	c None",
". 	c #000000",
"+ 	c #C3D7F4",
"@ 	c #A9CDE5",
"# 	c #75757A",
"$ 	c #EFC5BB",
"% 	c #F1C8BE",
"& 	c #F0C6BC",
"* 	c #EEBCB2",
"= 	c #EEBEB5",
"- 	c #EEC1B8",
"; 	c #EDBFB6",
"> 	c #E9B7AD",
", 	c #E9B8AF",
"' 	c #E9B9B1",
") 	c #E5BFBA",
"! 	c #737277",
"~ 	c #B3CDE3",
"{ 	c #A1BED6",
"] 	c #BBD6E8",
"^ 	c #8AAAC5",
"/ 	c #605F68",
"( 	c #E08D7E",
"_ 	c #E0826E",
": 	c #E0806E",
"< 	c #DC7A68",
"[ 	c #DC8171",
"} 	c #DA7868",
"| 	c #D48173",
"1 	c #D47D6E",
"2 	c #CE7265",
"3 	c #CF7264",
"4 	c #CE7567",
"5 	c #C4675B",
"6 	c #C36558",
"7 	c #626169",
"8 	c #87A3B7",
"9 	c #567187",
"0 	c #BAD5E9",
"a 	c #88A7C3",
"b 	c #686670",
"c 	c #C8817B",
"d 	c #CB7C74",
"e 	c #CB7A73",
"f 	c #CB7B73",
"g 	c #CC7C72",
"h 	c #CB7D73",
"i 	c #BF6B64",
"j 	c #CC7A70",
"k 	c #C16A62",
"l 	c #CC7C73",
"m 	c #C2655B",
"n 	c #C36459",
"o 	c #BA6C6A",
"p 	c #819EB6",
"q 	c #547086",
"r 	c #B6D3E7",
"s 	c #87ABC1",
"t 	c #737373",
"u 	c #FFFFFF",
"v 	c #83A0B8",
"w 	c #526C80",
"x 	c #B9D3E7",
"y 	c #85A4BF",
"z 	c #FAFAFA",
"A 	c #888888",
"B 	c #454545",
"C 	c #171717",
"D 	c #161616",
"E 	c #444444",
"F 	c #868686",
"G 	c #F9F9F9",
"H 	c #4F697C",
"I 	c #B9D3E6",
"J 	c #84A3BF",
"K 	c #CECECE",
"L 	c #CDCDCD",
"M 	c #AFAFAF",
"N 	c #272727",
"O 	c #262626",
"P 	c #BFBFBF",
"Q 	c #88A4BB",
"R 	c #486276",
"S 	c #B7D2E7",
"T 	c #82A0BB",
"U 	c #636363",
"V 	c #FDFDFD",
"W 	c #353535",
"X 	c #222222",
"Y 	c #E7E7E7",
"Z 	c #E8E8E8",
"` 	c #B1B1B1",
" .	c #232323",
"..	c #363636",
"+.	c #FEFEFE",
"@.	c #465E70",
"#.	c #B5CAE5",
"$.	c #7FA2B9",
"%.	c #9C9C9C",
"&.	c #1E1E1E",
"*.	c #F1F1F1",
"=.	c #1D1D1D",
"-.	c #9D9D9D",
";.	c #87A3BA",
">.	c #455C6D",
",.	c #AECCE5",
"'.	c #7DA0B6",
").	c #3E3E3E",
"!.	c #7F7F7F",
"~.	c #3D3D3D",
"{.	c #546069",
"].	c #B0D1E4",
"^.	c #83A1B6",
"/.	c #735B5B",
"(.	c #DBDBDB",
"_.	c #DADADA",
":.	c #515C64",
"<.	c #AACEE3",
"[.	c #7B9BB2",
"}.	c #7A8E9A",
"|.	c #7A7A7A",
"1.	c #040404",
"2.	c #6E6E6E",
"3.	c #6B6F72",
"4.	c #6F6F6F",
"5.	c #030303",
"6.	c #6F777E",
"7.	c #86A2B9",
"8.	c #3A515D",
"9.	c #A9C9E2",
"0.	c #7494AF",
"a.	c #13181B",
"b.	c #6D869C",
"c.	c #7E9CB5",
"d.	c #829FB7",
"e.	c #7998B2",
"f.	c #85A1B8",
"g.	c #738B9F",
"h.	c #15191C",
"i.	c #8AA5BB",
"j.	c #364A59",
"k.	c #ABC4E2",
"l.	c #7294AD",
"m.	c #6F90AC",
"n.	c #7192AE",
"o.	c #131617",
"p.	c #33393E",
"q.	c #626F79",
"r.	c #5F6C76",
"s.	c #5C6971",
"t.	c #5A666F",
"u.	c #58636B",
"v.	c #57636A",
"w.	c #111417",
"x.	c #7897B3",
"y.	c #A4B9CB",
"z.	c #364853",
"A.	c #AAC9E2",
"B.	c #7091AA",
"C.	c #6F8FA7",
"D.	c #4A5359",
"E.	c #5C5955",
"F.	c #1B1B1A",
"G.	c #DFDEDD",
"H.	c #EBEAE8",
"I.	c #EAE9E7",
"J.	c #DFDDDA",
"K.	c #CFCEC9",
"L.	c #BFBCB6",
"M.	c #121211",
"N.	c #2E3E4B",
"O.	c #54738C",
"P.	c #AAC6DD",
"Q.	c #34464E",
"R.	c #AAC9E1",
"S.	c #6C8EA6",
"T.	c #6C8CA4",
"U.	c #40474D",
"V.	c #D8D6D1",
"W.	c #302F2E",
"X.	c #0B0B0A",
"Y.	c #383631",
"Z.	c #C5C3C0",
"`.	c #B5B4AE",
" +	c #86837E",
".+	c #1A1918",
"++	c #0E1011",
"@+	c #4C687E",
"#+	c #4F6F84",
"$+	c #B3CADC",
"%+	c #313E49",
"&+	c #A8C8E1",
"*+	c #6B8DA6",
"=+	c #728FA4",
"-+	c #E2E1DD",
";+	c #CDCCC9",
">+	c #131312",
",+	c #292928",
"'+	c #40484F",
")+	c #4E697F",
"!+	c #BACCDC",
"~+	c #A4C4DE",
"{+	c #698BA3",
"]+	c #708AA1",
"^+	c #383E43",
"/+	c #E0DEDA",
"(+	c #4F4C44",
"_+	c #292824",
":+	c #151412",
"<+	c #111010",
"[+	c #10100F",
"}+	c #353432",
"|+	c #757472",
"1+	c #E3E2E0",
"2+	c #475158",
"3+	c #4E6879",
"4+	c #4D6C80",
"5+	c #A3C3DB",
"6+	c #383F43",
"7+	c #778999",
"8+	c #6E899E",
"9+	c #65859C",
"0+	c #33383C",
"a+	c #D7D4D0",
"b+	c #D6D4D0",
"c+	c #4E4A43",
"d+	c #4D4942",
"e+	c #C0BCB5",
"f+	c #D1CEC9",
"g+	c #E6E5E2",
"h+	c #EDECEA",
"i+	c #454F55",
"j+	c #486173",
"k+	c #4D6678",
"l+	c #A1C1DA",
"m+	c #373C40",
"n+	c #0C0D0F",
"o+	c #4E5E6A",
"p+	c #5B6E7C",
"q+	c #4F5B62",
"r+	c #A4A099",
"s+	c #B8B3AB",
"t+	c #CCC9C3",
"u+	c #D7D5D1",
"v+	c #E4E2E0",
"w+	c #DDDBD7",
"x+	c #B8B5B0",
"y+	c #3E474D",
"z+	c #4A6176",
"A+	c #4A6070",
"B+	c #9BC3D8",
"C+	c #363C41",
"D+	c #28323E",
"                                                ",
"                                                ",
"    . . . . . . . . . . . . . . . . . . .       ",
"  . + @ # $ % & * = - ; > , > , ' ) ! ~ { .     ",
"  . ] ^ / ( _ : < [ } | 1 2 3 4 5 6 7 8 9 .     ",
"  . 0 a b c d e f g h i j k l m n o b p q .     ",
"  . r s t u u u u u u u u u u u u u t v w .     ",
"  . x y t u u u z A B C D E F G u u t v H .     ",
"  . I J t K L M N . . . . . . O M P t Q R .     ",
"  . S T U u V W . X M Y Z `  .. ..+.t Q @..     ",
"  . #.$.t u %.. &.*.u u u u *.=.. -.t ;.>..     ",
"  . ,.'.t K ).. !.L L L L L L !.. ~.t ;.{..     ",
"  . ].^./.u O . (.u u u u u u _.. N t v :..     ",
"  . <.[.}.|.1.. 2.t t 3.4.t t 2.. 5.6.7.8..     ",
"  . 9.0.p v a.. b.c.d.e.7.f.f.g.. h.v i.j..     ",
"  . k.l.m.n.o.. p.q.r.s.t.u.v.p.. w.x.y.z..     ",
"  . A.B.C.D.E.. F.G.H.I.J.K.L.M.. N.O.P.Q..     ",
"  . R.S.T.U.V.W.. X.Y.Z.`. +.+. ++@+#+$+%+.     ",
"  . &+*+=+U.-+;+>+. . . . . . ,+'+)+#+!+%+.     ",
"  . ~+{+]+^+/+H.(+_+:+<+[+}+|+1+2+3+4+5+6+.     ",
"  . 7+8+9+0+a+b+c+d+d+e+f+g+h+g+i+j+k+l+m+.     ",
"    n+o+p+q+r+e+s+t+t+u+v+I.w+x+y+z+A+B+C+.     ",
"      . . . . . . . . . . . . . . . . D+.       ",
"                                                "};
